<svg xmlns="http://www.w3.org/2000/svg" xmlns:xlink="http://www.w3.org/1999/xlink" height="1291" version="1.1" viewBox="0 0 502 1291" width="502"><ellipse cx="216" cy="34" fill="#ff000000" rx="12" ry="12" stroke="#6482B9" stroke-width="1.0"/><text fill="#774400" font-decoration="none" font-family="Arial,Helvetica" font-size="11" font-weight="normal" text-anchor="middle"><tspan x="216" y="12">START</tspan></text><rect fill="#ffffffff" height="40" rx="12.0" ry="12.0" stroke="#ff505050" stroke-width="1.0" width="80" x="174" y="92"/><text fill="#774400" font-decoration="none" font-family="Arial,Helvetica" font-size="11" font-weight="normal" text-anchor="middle"><tspan x="214" y="115">Select category</tspan></text><g><path d="M 214.66128193732803 91.50025994283016 L 211.85628935837468 85.40665537475908 L 214.80636776037733 87.00259942830151 L 217.85317004441288 85.60010313882484 z" fill="ff6482b9" stroke="ff6482b9" stroke-width="1.0"/><path d="M 216.08086317785924 47.493241486363054 L 214.64516129032256 92.0" fill="none" stroke="ff6482b9" stroke-width="1.0"/></g><text fill="#446299" font-decoration="none" font-family="Arial,Helvetica" font-size="11" font-weight="normal" text-anchor="middle"><tspan x="215" y="72">1</tspan></text><rect fill="#ffffffff" height="40" rx="12.0" ry="12.0" stroke="#ff505050" stroke-width="1.0" width="110" x="194" y="382"/><text fill="#774400" font-decoration="none" font-family="Arial,Helvetica" font-size="11" font-weight="normal" text-anchor="middle"><tspan x="249" y="405">Add product to cart</tspan></text><path d="M 274 232 L 294 252 L 274 272 L 254 252 Z" fill="#ffffffff" stroke="#ff505050" stroke-width="1.0"/><text fill="#774400" font-decoration="none" font-family="Arial,Helvetica" font-size="11" font-weight="normal" text-anchor="middle"><tspan x="274" y="255">[desired product on the screen?]</tspan></text><path d="M 444 162 L 464 182 L 444 202 L 424 182 Z" fill="#ffffffff" stroke="#ff505050" stroke-width="1.0"/><text fill="#774400" font-decoration="none" font-family="Arial,Helvetica" font-size="11" font-weight="normal" text-anchor="middle"><tspan x="444" y="185">[is there more pages?]</tspan></text><g><path d="M 267.80304035071043 237.54042748499097 L 262.6820894691813 233.20731520062012 L 266.03040350710415 233.4042748499097 L 268.1969596492896 230.84379940914513 z" fill="ff6482b9" stroke="ff6482b9" stroke-width="1.0"/><path d="M 222.76838822071815 132.45957251500903 L 268.0 238.0" fill="none" stroke="ff6482b9" stroke-width="1.0"/></g><text fill="#446299" font-decoration="none" font-family="Arial,Helvetica" font-size="11" font-weight="normal" text-anchor="middle"><tspan x="245" y="188">2</tspan></text><g><path d="M 429.37099428409596 188.0237082359605 L 424.96517510901054 193.08224136291042 L 425.20994284095974 189.7370823596048 L 422.6806762774848 187.53417277206213 z" fill="ff6482b9" stroke="ff6482b9" stroke-width="1.0"/><path d="M 288.629005715904 245.97629176403953 L 429.8333333333333 187.83333333333334" fill="none" stroke="ff6482b9" stroke-width="1.0"/></g><text fill="#446299" font-decoration="none" font-family="Arial,Helvetica" font-size="11" font-weight="normal" text-anchor="middle"><tspan x="359" y="220">3</tspan></text><g><path d="M 252.41553282698598 381.50680303808394 L 250.4427449793217 375.09524253317505 L 253.1553282698601 377.0680303808393 L 256.36110852231457 376.08163645700716 z" fill="ff6482b9" stroke="ff6482b9" stroke-width="1.0"/><path d="M 271.0606576492045 269.63605410477317 L 252.33333333333331 382.0" fill="none" stroke="ff6482b9" stroke-width="1.0"/></g><text fill="#446299" font-decoration="none" font-family="Arial,Helvetica" font-size="11" font-weight="normal" text-anchor="middle"><tspan x="261" y="328">4</tspan></text><g><path d="M 254.47833694021443 124.3194938513696 L 261.09186507013567 123.1964419047792 L 258.7833694021443 125.62972112239173 L 259.3448953754395 128.93648518735236 z" fill="#6482B9" stroke="#6482B9" stroke-width="1.0"/><path d="M 428.1883297264522 177.18775252544197 L 254.0 124.17391304347825" fill="none" stroke="#6482B9" stroke-width="1.0"/></g><text fill="#446299" font-decoration="none" font-family="Arial,Helvetica" font-size="11" font-weight="normal" text-anchor="middle"><tspan x="341" y="153">5</tspan></text><rect fill="#ffffffff" height="40" rx="12.0" ry="12.0" stroke="#ff505050" stroke-width="1.0" width="80" x="404" y="352"/><text fill="#774400" font-decoration="none" font-family="Arial,Helvetica" font-size="11" font-weight="normal" text-anchor="middle"><tspan x="444" y="375">Change page</tspan></text><g><path d="M 444.0 351.5 L 441.0 345.5 L 444.0 347.0 L 447.0 345.5 z" fill="#6482B9" stroke="#6482B9" stroke-width="1.0"/><path d="M 444.0 202.5 L 444.0 352.0" fill="none" stroke="#6482B9" stroke-width="1.0"/></g><text fill="#446299" font-decoration="none" font-family="Arial,Helvetica" font-size="11" font-weight="normal" text-anchor="middle"><tspan x="444" y="280">6</tspan></text><g><path d="M 286.13262186266684 260.56420366776484 L 292.7644786350514 261.5733992635625 L 289.80897724735826 263.1592780569588 L 289.3043794494594 266.4752064431511 z" fill="#6482B9" stroke="#6482B9" stroke-width="1.0"/><path d="M 415.25818273503427 351.7116584012007 L 285.7241379310345 260.2758620689655" fill="none" stroke="#6482B9" stroke-width="1.0"/></g><text fill="#446299" font-decoration="none" font-family="Arial,Helvetica" font-size="11" font-weight="normal" text-anchor="middle"><tspan x="350" y="309">7</tspan></text><path d="M 34 292 L 54 312 L 34 332 L 14 312 Z" fill="#ffffffff" stroke="#ff505050" stroke-width="1.0"/><text fill="#774400" font-decoration="none" font-family="Arial,Helvetica" font-size="11" font-weight="normal" text-anchor="middle"><tspan x="33" y="315">[need more?]</tspan></text><g><path d="M 48.55958114988836 318.0947083883254 L 55.252641344074604 317.64421395217823 L 52.710565597244255 319.832329784893 L 52.93581281531783 323.1788598819861 z" fill="#6482B9" stroke="#6482B9" stroke-width="1.0"/><path d="M 200.7610017280715 381.80693095593693 L 48.09836065573771 317.9016393442623" fill="none" stroke="#6482B9" stroke-width="1.0"/></g><text fill="#446299" font-decoration="none" font-family="Arial,Helvetica" font-size="11" font-weight="normal" text-anchor="middle"><tspan x="124" y="353">8</tspan></text><g><path d="M 195.66551763418877 132.3716470731236 L 193.8816116831956 138.83830614547395 L 192.65517634188774 135.71647073123586 L 189.4218468057126 134.82451775573924 z" fill="#6482B9" stroke="#6482B9" stroke-width="1.0"/><path d="M 43.808166576337555 301.10203713740276 L 196.0 132.0" fill="none" stroke="#6482B9" stroke-width="1.0"/></g><text fill="#446299" font-decoration="none" font-family="Arial,Helvetica" font-size="11" font-weight="normal" text-anchor="middle"><tspan x="119" y="219">9</tspan></text><rect fill="#ffffffff" height="40" rx="12.0" ry="12.0" stroke="#ff505050" stroke-width="1.0" width="80" x="4" y="432"/><text fill="#774400" font-decoration="none" font-family="Arial,Helvetica" font-size="11" font-weight="normal" text-anchor="middle"><tspan x="44" y="455">Open cart</tspan></text><path d="M 194 532 L 214 552 L 194 572 L 174 552 Z" fill="#ffffffff" stroke="#ff505050" stroke-width="1.0"/><text fill="#774400" font-decoration="none" font-family="Arial,Helvetica" font-size="11" font-weight="normal" text-anchor="middle"><tspan x="194" y="555">[is signed in?]</tspan></text><g><path d="M 42.53580504643462 431.5012706500846 L 39.11594664701496 425.7302596010639 L 42.215193321489025 427.0127065008463 L 45.10069884599937 425.3027773011365 z" fill="#6482B9" stroke="#6482B9" stroke-width="1.0"/><path d="M 35.36895685832728 331.16539601658206 L 42.57142857142857 432.0" fill="none" stroke="#6482B9" stroke-width="1.0"/></g><text fill="#446299" font-decoration="none" font-family="Arial,Helvetica" font-size="11" font-weight="normal" text-anchor="middle"><tspan x="38" y="384">10</tspan></text><g><path d="M 181.5839748528311 543.7226499018874 L 174.92757249812834 542.8905996075496 L 177.8397485283108 541.2264990188738 L 178.25577367547973 537.8982978415224 z" fill="#6482B9" stroke="#6482B9" stroke-width="1.0"/><path d="M 74.41602514716892 472.2773500981126 L 182.0 544.0" fill="none" stroke="#6482B9" stroke-width="1.0"/></g><text fill="#446299" font-decoration="none" font-family="Arial,Helvetica" font-size="11" font-weight="normal" text-anchor="middle"><tspan x="128" y="511">11</tspan></text><rect fill="#ffffffff" height="40" rx="12.0" ry="12.0" stroke="#ff505050" stroke-width="1.0" width="80" x="24" y="662"/><text fill="#774400" font-decoration="none" font-family="Arial,Helvetica" font-size="11" font-weight="normal" text-anchor="middle"><tspan x="64" y="685">Sign in</tspan></text><g><path d="M 45.78244524296503 472.4981202940978 L 49.29094470574113 478.2156749741774 L 46.17227851660682 476.9812029409784 L 43.31350117656704 478.7354526723664 z" fill="#6482B9" stroke="#6482B9" stroke-width="1.0"/><path d="M 62.21755475703497 661.5018797059022 L 45.73913043478261 472.0" fill="none" stroke="#6482B9" stroke-width="1.0"/></g><text fill="#446299" font-decoration="none" font-family="Arial,Helvetica" font-size="11" font-weight="normal" text-anchor="middle"><tspan x="54" y="570">12</tspan></text><g><path d="M 194.0 621.5 L 191.0 615.5 L 194.0 617.0 L 197.0 615.5 z" fill="#6482B9" stroke="#6482B9" stroke-width="1.0"/><path d="M 194.0 572.5 L 194.0 622.0" fill="none" stroke="#6482B9" stroke-width="1.0"/></g><text fill="#446299" font-decoration="none" font-family="Arial,Helvetica" font-size="11" font-weight="normal" text-anchor="middle"><tspan x="194" y="600">13</tspan></text><rect fill="#ffffffff" height="40" rx="12.0" ry="12.0" stroke="#ff505050" stroke-width="1.0" width="80" x="404" y="602"/><text fill="#774400" font-decoration="none" font-family="Arial,Helvetica" font-size="11" font-weight="normal" text-anchor="middle"><tspan x="443" y="625">Select delivery</tspan></text><path d="M 194 622 L 214 642 L 194 662 L 174 642 Z" fill="#ffffffff" stroke="#ff505050" stroke-width="1.0"/><text fill="#774400" font-decoration="none" font-family="Arial,Helvetica" font-size="11" font-weight="normal" text-anchor="middle"><tspan x="194" y="645">[has account?]</tspan></text><g><path d="M 403.5185179901429 610.66518503724 L 396.93184409529795 611.9362975432628 L 399.1851799014291 609.4518503724001 L 398.54962364841776 606.1585134249776 z" fill="#6482B9" stroke="#6482B9" stroke-width="1.0"/><path d="M 210.1064820098571 556.50981496276 L 404.0 610.8" fill="none" stroke="#6482B9" stroke-width="1.0"/></g><text fill="#446299" font-decoration="none" font-family="Arial,Helvetica" font-size="11" font-weight="normal" text-anchor="middle"><tspan x="306" y="586">14</tspan></text><g><path d="M 104.47788950436097 669.545264767889 L 109.3303060101801 664.913412648698 L 108.77889504360975 668.2218784481202 L 111.09482110320525 670.6480867010297 z" fill="#6482B9" stroke="#6482B9" stroke-width="1.0"/><path d="M 178.2279928485802 646.85292527736 L 104.0 669.6923076923077" fill="none" stroke="#6482B9" stroke-width="1.0"/></g><text fill="#446299" font-decoration="none" font-family="Arial,Helvetica" font-size="11" font-weight="normal" text-anchor="middle"><tspan x="141" y="661">15</tspan></text><g><path d="M 403.50159236073193 625.2398726111414 L 397.7599363563639 628.7087897804472 L 399.0159236073194 625.5987261114144 L 397.2814650226665 622.7278981092304 z" fill="#6482B9" stroke="#6482B9" stroke-width="1.0"/><path d="M 213.01692615778654 640.4786459073771 L 404.0 625.2" fill="none" stroke="#6482B9" stroke-width="1.0"/></g><text fill="#446299" font-decoration="none" font-family="Arial,Helvetica" font-size="11" font-weight="normal" text-anchor="middle"><tspan x="308" y="635">16</tspan></text><rect fill="#ffffffff" height="40" rx="12.0" ry="12.0" stroke="#ff505050" stroke-width="1.0" width="80" x="404" y="702"/><text fill="#774400" font-decoration="none" font-family="Arial,Helvetica" font-size="11" font-weight="normal" text-anchor="middle"><tspan x="444" y="725">Select payment</tspan></text><g><path d="M 444.0 701.5 L 441.0 695.5 L 444.0 697.0 L 447.0 695.5 z" fill="#6482B9" stroke="#6482B9" stroke-width="1.0"/><path d="M 444.0 642.5 L 444.0 702.0" fill="none" stroke="#6482B9" stroke-width="1.0"/></g><text fill="#446299" font-decoration="none" font-family="Arial,Helvetica" font-size="11" font-weight="normal" text-anchor="middle"><tspan x="444" y="675">17</tspan></text><rect fill="#ffffffff" height="40" rx="12.0" ry="12.0" stroke="#ff505050" stroke-width="1.0" width="80" x="404" y="802"/><text fill="#774400" font-decoration="none" font-family="Arial,Helvetica" font-size="11" font-weight="normal" text-anchor="middle"><tspan x="443" y="825">Confirm</tspan></text><g><path d="M 444.0 801.5 L 441.0 795.5 L 444.0 797.0 L 447.0 795.5 z" fill="#6482B9" stroke="#6482B9" stroke-width="1.0"/><path d="M 444.0 742.5 L 444.0 802.0" fill="none" stroke="#6482B9" stroke-width="1.0"/></g><text fill="#446299" font-decoration="none" font-family="Arial,Helvetica" font-size="11" font-weight="normal" text-anchor="middle"><tspan x="444" y="775">18</tspan></text><path d="M 444 892 L 464 912 L 444 932 L 424 912 Z" fill="#ffffffff" stroke="#ff505050" stroke-width="1.0"/><text fill="#774400" font-decoration="none" font-family="Arial,Helvetica" font-size="11" font-weight="normal" text-anchor="middle"><tspan x="444" y="915">[is logged in?]</tspan></text><g><path d="M 444.0 891.5 L 441.0 885.5 L 444.0 887.0 L 447.0 885.5 z" fill="#6482B9" stroke="#6482B9" stroke-width="1.0"/><path d="M 444.0 842.5 L 444.0 892.0" fill="none" stroke="#6482B9" stroke-width="1.0"/></g><text fill="#446299" font-decoration="none" font-family="Arial,Helvetica" font-size="11" font-weight="normal" text-anchor="middle"><tspan x="444" y="870">19</tspan></text><rect fill="#ffffffff" height="40" rx="12.0" ry="12.0" stroke="#ff505050" stroke-width="1.0" width="80" x="294" y="1002"/><text fill="#774400" font-decoration="none" font-family="Arial,Helvetica" font-size="11" font-weight="normal" text-anchor="middle"><tspan x="334" y="1025">Create account</tspan></text><g><path d="M 354.3535533905933 1001.6464466094068 L 356.4748737341529 995.2824855787278 L 357.53553390593277 998.4644660940673 L 360.7175144212722 999.5251262658471 z" fill="#6482B9" stroke="#6482B9" stroke-width="1.0"/><path d="M 433.6464466094067 922.3535533905932 L 354.0 1002.0" fill="none" stroke="#6482B9" stroke-width="1.0"/></g><text fill="#446299" font-decoration="none" font-family="Arial,Helvetica" font-size="11" font-weight="normal" text-anchor="middle"><tspan x="394" y="965">20</tspan></text><rect fill="#ffffffff" height="40" rx="12.0" ry="12.0" stroke="#ff505050" stroke-width="1.0" width="80" x="404" y="1132"/><text fill="#774400" font-decoration="none" font-family="Arial,Helvetica" font-size="11" font-weight="normal" text-anchor="middle"><tspan x="443" y="1155">Create Order</tspan></text><g><path d="M 444.0 1131.5 L 441.0 1125.5 L 444.0 1127.0 L 447.0 1125.5 z" fill="#6482B9" stroke="#6482B9" stroke-width="1.0"/><path d="M 444.0 932.5 L 444.0 1132.0" fill="none" stroke="#6482B9" stroke-width="1.0"/></g><text fill="#446299" font-decoration="none" font-family="Arial,Helvetica" font-size="11" font-weight="normal" text-anchor="middle"><tspan x="444" y="1035">21</tspan></text><g><ellipse cx="451" cy="1269" fill="#ff000000" rx="17" ry="17" stroke="#ffffffff" stroke-width="5.0"/><ellipse cx="451" cy="1269" fill="none" rx="9" ry="9" stroke="#ffffffff" stroke-width="5.0"/></g><text fill="#774400" font-decoration="none" font-family="Arial,Helvetica" font-size="11" font-weight="normal" text-anchor="middle"><tspan x="451" y="1237">END R</tspan></text><g><path d="M 450.35339722395184 1251.5365565085788 L 446.97728905000895 1245.7398424740732 L 450.0667465299378 1247.0456956356925 L 452.96510354719067 1245.357641548721 z" fill="#6482B9" stroke="#6482B9" stroke-width="1.0"/><path d="M 445.3084458217935 1172.4989845414318 L 450.3852473010645 1252.0355410500106" fill="none" stroke="#6482B9" stroke-width="1.0"/></g><text fill="#446299" font-decoration="none" font-family="Arial,Helvetica" font-size="11" font-weight="normal" text-anchor="middle"><tspan x="447" y="1215">24</tspan></text><g><path d="M 426.75395195619 1131.6183068573155 L 420.58813965128564 1128.9758158694992 L 423.84721186959223 1128.1830685731545 L 425.1684573635003 1125.1001624207022 z" fill="#6482B9" stroke="#6482B9" stroke-width="1.0"/><path d="M 351.24604804381 1042.3816931426845 L 427.0769230769231 1132.0" fill="none" stroke="#6482B9" stroke-width="1.0"/></g><text fill="#446299" font-decoration="none" font-family="Arial,Helvetica" font-size="11" font-weight="normal" text-anchor="middle"><tspan x="389" y="1090">23</tspan></text></svg>